<?xml version="1.0" encoding="UTF-8"?>
<svg width="200" height="200" viewBox="0 0 200 200" xmlns="http://www.w3.org/2000/svg">
  <!-- Background Circle -->
  <circle cx="100" cy="100" r="90" fill="#fa320a" />
  
  <!-- Tomato Body -->
  <circle cx="100" cy="100" r="70" fill="#ff5722" />
  <path d="M100,30 C65,30 40,55 40,90 C40,125 65,170 100,170 C135,170 160,125 160,90 C160,55 135,30 100,30 Z" fill="#e64a19"/>
  
  <!-- Stem and Leaves -->
  <path d="M100,40 C95,35 85,38 80,45 C75,52 75,60 80,65 C85,70 95,70 100,65 C105,70 115,70 120,65 C125,60 125,52 120,45 C115,38 105,35 100,40 Z" fill="#4caf50"/>
  
  <!-- Crypto Symbol (Bitcoin-like) -->
  <path d="M110,90 L110,80 L100,80 L100,70 L90,70 L90,80 L80,80 L80,90 L90,90 L90,110 L80,110 L80,120 L90,120 L90,130 L100,130 L100,120 L110,120 L110,110 L100,110 L100,90 L110,90 Z" fill="white"/>
  <path d="M120,100 C120,110 110,120 100,120 L100,110 C110,110 110,100 100,100 C90,100 90,110 100,110 L100,120 C90,120 80,110 80,100 C80,90 90,80 100,80 C110,80 120,90 120,100 Z" fill="white"/>
</svg> 