<svg width="200" height="200" viewBox="0 0 200 200" fill="none" xmlns="http://www.w3.org/2000/svg">
  <circle cx="100" cy="100" r="90" fill="#10B981" />
  <circle cx="100" cy="100" r="75" fill="#ECFDF5" />
  <path d="M100 40C117.673 40 134.175 47.3705 146.421 59.5786C158.629 71.8254 166 88.3269 166 106C166 123.673 158.629 140.175 146.421 152.421C134.175 164.629 117.673 172 100 172C82.3269 172 65.8254 164.629 53.5786 152.421C41.3705 140.175 34 123.673 34 106C34 88.3269 41.3705 71.8254 53.5786 59.5786C65.8254 47.3705 82.3269 40 100 40Z" stroke="#10B981" stroke-width="4"/>
  <path d="M100 60C100 60 120 80 120 106C120 132 100 152 100 152" stroke="#10B981" stroke-width="8" stroke-linecap="round"/>
  <path d="M100 60C100 60 80 80 80 106C80 132 100 152 100 152" stroke="#10B981" stroke-width="8" stroke-linecap="round"/>
  <circle cx="100" cy="106" r="12" fill="#10B981"/>
</svg> 