<?xml version="1.0" encoding="UTF-8"?>
<svg width="100" height="100" viewBox="0 0 100 100" xmlns="http://www.w3.org/2000/svg">
  <circle cx="50" cy="50" r="45" fill="#ff5722" />
  <path d="M50,5 C25.1,5 5,25.1 5,50 C5,74.9 25.1,95 50,95 C74.9,95 95,74.9 95,50 C95,25.1 74.9,5 50,5 Z M50,90 C27.9,90 10,72.1 10,50 C10,27.9 27.9,10 50,10 C72.1,10 90,27.9 90,50 C90,72.1 72.1,90 50,90 Z" fill="#e64a19"/>
  <path d="M50,20 C45,15 35,18 30,25 C25,32 25,40 30,45 C35,50 45,50 50,45 C55,50 65,50 70,45 C75,40 75,32 70,25 C65,18 55,15 50,20 Z" fill="#4caf50"/>
  <path d="M36,30 C32,33 30,38 32,42 C34,46 38,45 42,43 C46,41 48,36 46,32 C44,28 40,27 36,30 Z" fill="#81c784"/>
  <path d="M64,30 C68,33 70,38 68,42 C66,46 62,45 58,43 C54,41 52,36 54,32 C56,28 60,27 64,30 Z" fill="#81c784"/>
</svg> 