<?xml version="1.0" encoding="UTF-8"?>
<svg width="100" height="100" viewBox="0 0 100 100" xmlns="http://www.w3.org/2000/svg">
  <path d="M50,5 C35,5 15,15 15,35 C15,55 35,95 50,95 C65,95 85,55 85,35 C85,15 65,5 50,5 Z" fill="#8bc34a"/>
  <path d="M25,20 C20,25 18,35 22,40 C26,45 36,43 40,38 C44,33 42,23 38,18 C34,13 30,15 25,20 Z" fill="#689f38"/>
  <path d="M75,20 C80,25 82,35 78,40 C74,45 64,43 60,38 C56,33 58,23 62,18 C66,13 70,15 75,20 Z" fill="#689f38"/>
  <path d="M35,50 C30,55 28,65 32,70 C36,75 46,73 50,68 C54,63 52,53 48,48 C44,43 40,45 35,50 Z" fill="#689f38"/>
  <path d="M65,50 C70,55 72,65 68,70 C64,75 54,73 50,68 C46,63 48,53 52,48 C56,43 60,45 65,50 Z" fill="#689f38"/>
  <circle cx="48" cy="28" r="5" fill="#b9e769"/>
  <circle cx="35" cy="38" r="4" fill="#b9e769"/>
  <circle cx="55" cy="60" r="3" fill="#b9e769"/>
  <circle cx="65" cy="40" r="4" fill="#b9e769"/>
  <circle cx="25" cy="55" r="3" fill="#b9e769"/>
  <circle cx="75" cy="60" r="3" fill="#b9e769"/>
</svg> 